<svg version="1" xmlns="http://www.w3.org/2000/svg" width="853.333" height="853.333" viewBox="0 0 640.000000 640.000000"><path d="M279.6 18.6C245.7 23 218.5 31.5 184 48.7c-33.4 16.6-54.2 31.3-78.6 55.7C81 128.8 66.3 149.6 49.7 183 26 230.6 18 264.7 18 318s8 87.4 31.7 135c16.6 33.4 31.3 54.2 55.7 78.6 24.4 24.4 45.2 39.1 78.6 55.7C231.6 611 265.7 619 319 619s87.4-8 135-31.7c33.4-16.6 54.2-31.3 78.6-55.7 24.4-24.4 39.1-45.2 55.7-78.6C612 405.4 620 371.3 620 318s-8-87.4-31.7-135c-16.6-33.4-31.3-54.2-55.7-78.6C508.2 80 487.4 65.3 454 48.7c-35.2-17.5-62-25.8-97-30.2-16-1.9-61.7-1.9-77.4.1z"/></svg>
